<?xml version="1.0" encoding="UTF-8" standalone="no"?>
<!-- Created with Inkscape (http://www.inkscape.org/) -->

<svg
   xmlns:dc="http://purl.org/dc/elements/1.1/"
   xmlns:cc="http://creativecommons.org/ns#"
   xmlns:rdf="http://www.w3.org/1999/02/22-rdf-syntax-ns#"
   xmlns:svg="http://www.w3.org/2000/svg"
   xmlns="http://www.w3.org/2000/svg"
   xmlns:sodipodi="http://sodipodi.sourceforge.net/DTD/sodipodi-0.dtd"
   xmlns:inkscape="http://www.inkscape.org/namespaces/inkscape"
   width="453.5433"
   height="340.15747"
   id="svg2"
   sodipodi:version="0.32"
   inkscape:version="0.92.4 (5da689c313, 2019-01-14)"
   sodipodi:docname="Grundkonzept_path_tracing.svg"
   version="1.0">
  <defs
     id="defs4">
    <marker
       inkscape:stockid="Arrow1Lend"
       orient="auto"
       refY="0.0"
       refX="0.0"
       id="Arrow1Lend"
       style="overflow:visible;"
       inkscape:isstock="true">
      <path
         id="path9314"
         d="M 0.0,0.0 L 5.0,-5.0 L -12.5,0.0 L 5.0,5.0 L 0.0,0.0 z "
         style="fill-rule:evenodd;stroke:#000000;stroke-width:1pt;stroke-opacity:1;fill:#000000;fill-opacity:1"
         transform="scale(0.8) rotate(180) translate(12.5,0)" />
    </marker>
    <marker
       inkscape:stockid="Arrow2Lend"
       orient="auto"
       refY="0.0"
       refX="0.0"
       id="Arrow2Lend"
       style="overflow:visible;"
       inkscape:isstock="true">
      <path
         id="path9332"
         style="fill-rule:evenodd;stroke-width:0.625;stroke-linejoin:round;stroke:#000000;stroke-opacity:1;fill:#000000;fill-opacity:1"
         d="M 8.7185878,4.0337352 L -2.2072895,0.016013256 L 8.7185884,-4.0017078 C 6.9730900,-1.6296469 6.9831476,1.6157441 8.7185878,4.0337352 z "
         transform="scale(1.1) rotate(180) translate(1,0)" />
    </marker>
    <marker
       inkscape:stockid="DotL"
       orient="auto"
       refY="0.0"
       refX="0.0"
       id="DotL"
       style="overflow:visible"
       inkscape:isstock="true">
      <path
         id="path9372"
         d="M -2.5,-1.0 C -2.5,1.7600000 -4.7400000,4.0 -7.5,4.0 C -10.260000,4.0 -12.5,1.7600000 -12.5,-1.0 C -12.5,-3.7600000 -10.260000,-6.0 -7.5,-6.0 C -4.7400000,-6.0 -2.5,-3.7600000 -2.5,-1.0 z "
         style="fill-rule:evenodd;stroke:#000000;stroke-width:1pt;stroke-opacity:1;fill:#000000;fill-opacity:1"
         transform="scale(0.8) translate(7.4, 1)" />
    </marker>
    <inkscape:perspective
       sodipodi:type="inkscape:persp3d"
       inkscape:vp_x="3.2395948 : 205.7329 : 1"
       inkscape:vp_y="0 : 1000 : 0"
       inkscape:vp_z="456.78289 : 205.7329 : 1"
       inkscape:persp3d-origin="230.01124 : 149.03998 : 1"
       id="perspective5153" />
  </defs>
  <sodipodi:namedview
     id="base"
     pagecolor="#ffffff"
     bordercolor="#666666"
     borderopacity="1.0"
     inkscape:pageopacity="0.0"
     inkscape:pageshadow="2"
     inkscape:zoom="1.540463"
     inkscape:cx="208.81389"
     inkscape:cy="170.07874"
     inkscape:document-units="mm"
     inkscape:current-layer="layer1"
     inkscape:window-width="1920"
     inkscape:window-height="1001"
     inkscape:window-x="-9"
     inkscape:window-y="-9"
     width="12.8cm"
     height="9.6cm"
     units="cm"
     showgrid="true"
     grid_units="mm"
     inkscape:object-paths="false"
     inkscape:grid-points="true"
     inkscape:grid-bbox="true"
     inkscape:guide-points="true"
     showguides="true"
     inkscape:guide-bbox="true"
     inkscape:window-maximized="1">
    <sodipodi:guide
       orientation="vertical"
       position="56.476527"
       id="guide3573"
       inkscape:locked="false" />
    <sodipodi:guide
       orientation="horizontal"
       position="11.035643"
       id="guide3579"
       inkscape:locked="false" />
    <sodipodi:guide
       orientation="horizontal"
       position="24.018753"
       id="guide3886"
       inkscape:locked="false" />
    <sodipodi:guide
       orientation="horizontal"
       position="285.62841"
       id="guide3988"
       inkscape:locked="false" />
    <sodipodi:guide
       orientation="horizontal"
       position="303.15561"
       id="guide4081"
       inkscape:locked="false" />
    <inkscape:grid
       id="GridFromPre046Settings"
       type="xygrid"
       originx="0px"
       originy="0px"
       spacingx="2mm"
       spacingy="2mm"
       color="#3f3fff"
       empcolor="#3f3fff"
       opacity="0.15"
       empopacity="0.38"
       empspacing="5" />
  </sodipodi:namedview>
  <metadata
     id="metadata7">
    <rdf:RDF>
      <cc:Work
         rdf:about="">
        <dc:format>image/svg+xml</dc:format>
        <dc:type
           rdf:resource="http://purl.org/dc/dcmitype/StillImage" />
        <dc:title></dc:title>
      </cc:Work>
    </rdf:RDF>
  </metadata>
  <g
     inkscape:label="Layer 1"
     inkscape:groupmode="layer"
     id="layer1">
    <g
       sodipodi:type="inkscape:box3d"
       id="g5267"
       inkscape:perspectiveID="#perspective5153"
       inkscape:corner0="3.9999999 : 0.11338583 : 0 : 1"
       inkscape:corner7="-0.48275863 : -0.031278841 : 0.25 : 1"
       style="opacity:1;fill:#000000;fill-opacity:1;stroke:#f90000;stroke-width:4.02519703;stroke-miterlimit:4;stroke-dasharray:none;stroke-opacity:1;paint-order:markers fill stroke">
      <path
         sodipodi:type="inkscape:box3dside"
         id="path5269"
         inkscape:box3dsidetype="6"
         d="m 48.593925,123.08599 v 28.93293 l 19.43757,-0.83782 v -27.55518 z"
         points="48.593925,152.01892 68.031495,151.1811 68.031495,123.62592 48.593925,123.08599 "
         style="fill:#353564;fill-rule:evenodd;stroke:none;stroke-linejoin:round" />
      <path
         sodipodi:type="inkscape:box3dside"
         id="path5277"
         inkscape:box3dsidetype="13"
         d="M 48.593925,152.01892 441.66478,304.50331 446.59091,249.0844 68.031495,151.1811 Z"
         points="441.66478,304.50331 446.59091,249.0844 68.031495,151.1811 48.593925,152.01892 "
         style="fill:#afafde;fill-rule:evenodd;stroke:none;stroke-linejoin:round" />
      <path
         sodipodi:type="inkscape:box3dside"
         id="path5279"
         inkscape:box3dsidetype="11"
         d="M 68.031495,123.62592 446.59091,60.532687 V 249.0844 L 68.031495,151.1811 Z"
         points="446.59091,60.532687 446.59091,249.0844 68.031495,151.1811 68.031495,123.62592 "
         style="fill:#e9e9ff;fill-rule:evenodd;stroke:none;stroke-linejoin:round" />
      <path
         sodipodi:type="inkscape:box3dside"
         id="path5271"
         inkscape:box3dsidetype="5"
         d="M 48.593925,123.08599 441.66478,24.818276 446.59091,60.532687 68.031495,123.62592 Z"
         points="441.66478,24.818276 446.59091,60.532687 68.031495,123.62592 48.593925,123.08599 "
         style="fill:#4d4d9f;fill-rule:evenodd;stroke:none;stroke-linejoin:round" />
      <path
         sodipodi:type="inkscape:box3dside"
         id="path5275"
         inkscape:box3dsidetype="14"
         d="M 441.66478,24.818276 V 304.50331 l 4.92613,-55.41891 V 60.532687 Z"
         points="441.66478,304.50331 446.59091,249.0844 446.59091,60.532687 441.66478,24.818276 "
         style="fill:#d7d7ff;fill-rule:evenodd;stroke:none;stroke-linejoin:round" />
      <path
         sodipodi:type="inkscape:box3dside"
         id="path5273"
         inkscape:box3dsidetype="3"
         d="M 48.593925,123.08599 441.66478,24.818276 V 304.50331 L 48.593925,152.01892 Z"
         points="441.66478,24.818276 441.66478,304.50331 48.593925,152.01892 48.593925,123.08599 "
         style="fill:#8686bf;fill-rule:evenodd;stroke:none;stroke-linejoin:round" />
    </g>
    <text
       xml:space="preserve"
       style="font-style:normal;font-weight:normal;font-size:31.13978004px;line-height:1.25;font-family:sans-serif;letter-spacing:0px;word-spacing:0px;fill:#000000;fill-opacity:1;stroke:none;stroke-width:0.77849448"
       x="12.357206"
       y="291.89066"
       id="text5303"
       transform="scale(1.0517318,0.95081275)"><tspan
         sodipodi:role="line"
         id="tspan5301"
         x="12.357206"
         y="291.89066"
         style="stroke-width:0.77849448">Auge</tspan></text>
    <path
       style="fill:#000000;fill-opacity:1;fill-rule:nonzero;stroke:none"
       id="path5309"
       d="m 3.6435742,209.84774 c 0.9429105,-1.85663 2.1117356,-3.60704 3.4811486,-5.17578 0.9548285,-1.17942 2.0286389,-2.23296 3.1495282,-3.25038 1.097833,-0.9085 2.218018,-1.78521 3.361524,-2.635 1.226938,-0.98388 2.547007,-1.83601 3.689548,-2.92048 3.652345,-3.63461 8.518772,-5.71533 12.927731,-8.24729 0.317522,-0.18509 1.271503,-0.73793 0.952567,-0.55528 -2.418645,1.38512 -4.829978,2.78302 -7.251721,4.16271 -0.289799,0.1651 0.56464,-0.35572 0.855604,-0.51876 5.241108,-2.93681 6.773349,-4.73893 11.245604,-5.60238 2.041444,-0.51603 4.131195,-0.77093 6.229301,-0.8947 1.130501,0.0829 2.334529,-0.25994 3.460413,-0.0874 0.958122,0.14681 1.883562,0.45908 2.829077,0.67251 2.818816,0.49693 5.527806,1.40239 8.028891,2.79043 1.393021,0.96775 2.718335,1.99241 4.011245,3.0838 1.220369,0.9549 2.117093,2.22732 3.117292,3.39052 1.039084,1.07173 2.037484,2.18372 3.081204,3.24943 1.190122,0.78559 2.28508,1.69701 3.438338,2.53438 1.053639,0.63696 1.972007,1.48129 2.895276,2.29173 0.284903,0.4022 0.616134,0.7268 1.01255,1.01153 0,0 -8.18171,5.13326 -8.18171,5.13326 v 0 c -0.36655,-0.3236 -0.710034,-0.66026 -1.021159,-1.0389 -0.924898,-0.77194 -1.773589,-1.63482 -2.821727,-2.24525 -1.197691,-0.8665 -2.35735,-1.78397 -3.531963,-2.68096 -1.033039,-1.1063 -2.088319,-2.18911 -3.116695,-3.29994 -0.941353,-1.14548 -1.844112,-2.34011 -3.023392,-3.25971 -1.228875,-1.054 -2.530637,-2.01309 -3.848124,-2.95364 -2.445584,-1.30552 -5.091171,-2.11282 -7.819221,-2.59565 -2.071695,-0.39723 -4.111168,-0.54553 -6.216118,-0.31199 -2.067335,0.17779 -4.118338,0.4798 -6.12887,1.00628 -0.33376,0.0915 -0.672014,0.16792 -1.00128,0.27445 -0.323229,0.10457 -1.242776,0.5374 -0.954151,0.35821 2.38112,-1.4783 4.832707,-2.83997 7.246295,-4.26465 0.289755,-0.17104 -0.584051,0.33427 -0.874751,0.50369 -3.029633,1.7657 -6.055249,3.5383 -9.086234,5.30168 -0.318446,0.18527 -0.641322,0.36281 -0.961982,0.54422 2.405607,-1.39435 4.812766,-2.78603 7.216821,-4.18305 0.593385,-0.34483 -1.219935,0.6344 -1.793013,1.01201 -0.749184,0.49365 -1.358145,1.1622 -2.040615,1.73646 -1.094155,1.17746 -2.347809,2.09736 -3.638889,3.04541 -1.115569,0.87031 -2.277508,1.67012 -3.351813,2.59333 -1.213534,0.89722 -2.323605,1.96156 -3.240722,3.16416 -1.46737,1.39017 -2.571291,3.08655 -3.567324,4.83625 0,0 -8.7584838,4.02477 -8.7584838,4.02477 z"
       inkscape:connector-curvature="0" />
    <path
       style="fill:#000000;fill-opacity:1;fill-rule:nonzero;stroke:none"
       id="path5311"
       d="m 75.699088,205.51492 c 0.09085,2.10165 -0.161106,4.10401 -0.822327,6.09527 -0.35301,1.39578 -1.088053,2.54803 -2.013075,3.62355 -3.304355,2.88367 -7.622176,4.80923 -11.279982,6.89389 -1.952757,0.79092 -3.902457,1.59152 -5.787687,2.53489 2.04628,-1.41857 -4.934365,2.63827 -2.696374,1.34345 2.403255,-1.39044 4.815771,-2.76485 7.230147,-4.13589 0.320443,-0.18196 -0.627845,0.38627 -0.94811,0.56855 -3.054539,1.7385 -6.117352,3.46243 -9.176028,5.19364 -2.024925,0.7354 -4.071753,1.40493 -6.071002,2.21364 -2.016703,0.97243 -4.169709,1.56556 -6.313658,2.1759 -1.615633,0.60581 -3.220841,1.22166 -4.907822,1.59719 -1.986523,0.42039 -3.251867,0.2017 -5.169162,-0.26458 -1.981072,-0.39843 -3.863133,-1.15629 -5.751055,-1.85613 -1.522811,-0.74799 -3.162111,-1.20023 -4.732165,-1.82791 -1.519493,-0.49004 -2.860261,-1.37662 -4.273031,-2.09771 -1.243805,-0.74499 -2.408687,-1.68792 -3.4426034,-2.70783 -1.028089,-0.68737 -1.8072882,-1.55306 -2.5660747,-2.51922 -0.8846811,-1.116 -1.4103479,-2.39612 -1.9000613,-3.71493 -0.6446832,-1.44913 -1.0941197,-2.95608 -1.3626762,-4.51638 -0.1179299,-0.94521 -0.068546,-0.47503 -0.1489346,-1.41045 0,0 8.5422212,-4.43236 8.5422212,-4.43236 v 0 c 0.05508,0.89258 0.0197,0.44488 0.106557,1.34308 0.214541,1.50641 0.608363,2.96618 1.274936,4.34143 0.465057,1.22121 0.897001,2.42919 1.757067,3.44771 0.744875,0.91526 1.555315,1.69745 2.493307,2.4174 0.99866,0.93679 2.077612,1.83558 3.286703,2.48454 1.366415,0.73853 2.715952,1.52515 4.199648,2.01149 1.582076,0.58268 3.179041,1.1248 4.711536,1.83383 1.852823,0.70804 3.728471,1.36961 5.682285,1.74305 1.657461,0.34509 3.274412,0.35601 4.9217,-0.10954 1.647381,-0.45917 3.227817,-1.11213 4.863852,-1.60846 2.119232,-0.62593 4.219749,-1.29294 6.229958,-2.22433 2.006224,-0.77286 4.063701,-1.41109 6.029861,-2.28607 -2.399825,1.40298 -4.798451,2.80801 -7.199474,4.20893 -0.318581,0.18588 0.633074,-0.37873 0.95213,-0.5638 3.925995,-2.27724 7.717197,-4.74209 11.847527,-6.60936 1.922111,-0.90179 3.898715,-1.68149 5.831552,-2.56018 -2.511637,1.47593 -5.01333,2.96892 -7.534911,4.42779 -0.180923,0.10468 0.337478,-0.24688 0.510684,-0.36388 0.476088,-0.3216 0.890061,-0.73209 1.372225,-1.0394 0.159593,-0.10172 0.336689,-0.17294 0.505034,-0.2594 1.047551,-0.82558 1.867178,-1.95586 2.245975,-3.23854 0.706869,-1.88921 1.169452,-3.73514 0.917338,-5.77912 0,0 8.58397,-4.37375 8.58397,-4.37375 z"
       inkscape:connector-curvature="0" />
    <path
       style="fill:#000000;fill-opacity:1;fill-rule:nonzero;stroke:none"
       id="path5313"
       d="m 42.302272,203.71796 c -1.333018,1.13515 -2.649593,2.28153 -3.548764,3.7988 -0.602319,1.18576 -0.767794,2.34851 -0.27123,3.58276 0.709504,1.14137 1.825589,1.89333 3.038086,2.41749 0.395585,0.12024 0.72094,0.2815 1.144636,0.19473 0.142385,-0.0291 0.517014,-0.26563 0.389901,-0.19516 -2.670311,1.4734 -5.340623,2.9468 -8.010935,4.4202 0.452172,-0.24506 0.258978,-0.0778 0.570552,-0.51219 0.410119,-1.09833 0.361096,-2.30482 0.369917,-3.46068 -0.0014,-1.03487 0.0051,-2.06969 0.0026,-3.10455 0,0 8.544858,-4.35901 8.544858,-4.35901 v 0 c 0.0075,1.03152 0.02713,2.06283 0.03318,3.09435 0.0028,1.26266 0.02492,2.5352 -0.181175,3.7852 -0.976019,4.23107 -6.974757,7.28032 -10.893719,5.43538 -1.362863,-0.72462 -2.611704,-1.64612 -3.396823,-3.00825 -0.646826,-1.46363 -0.700638,-2.83029 -0.100878,-4.33833 0.761191,-1.70031 2.007919,-2.9097 3.373747,-4.14389 0,0 8.935999,-3.60685 8.935999,-3.60685 z"
       inkscape:connector-curvature="0" />
    <path
       style="fill:#000000;fill-opacity:1;fill-rule:nonzero;stroke:none"
       id="path5315"
       d="M 11.674816,199.13384 C 9.8720869,198.11317 7.8669096,197.54706 5.843094,197.1686 4.1360821,196.67468 3.1324487,196.32951 2.2223546,194.74531 1.6178489,193.28535 1.5278562,191.66184 1.595209,190.0993 c 0.1904355,-1.591 0.8762731,-3.00025 1.6952294,-4.35058 2.5058442,-3.091 6.3324147,-5.34328 10.2560826,-6.06893 0,0 -7.631835,5.88755 -7.631835,5.88755 v 0 c -4.3007115,1.82686 11.247536,-6.83939 6.199937,-3.65723 -0.926201,1.1514 -1.559259,2.46405 -1.918063,3.89735 -0.179968,1.36476 -0.07531,2.81748 0.36866,4.12447 0.652041,1.1406 1.931512,1.45866 3.144067,1.76794 2.066036,0.48523 4.065699,1.18115 5.986568,2.08861 0,0 -8.021039,5.34536 -8.021039,5.34536 z"
       inkscape:connector-curvature="0" />
    <path
       style="fill:#000000;fill-opacity:1;fill-rule:nonzero;stroke:none"
       id="path5317"
       d="m 24.01002,192.2582 c -2.106842,-0.14576 -4.094906,-0.55699 -5.938943,-1.60616 -1.430591,-0.9901 -1.9834,-2.34307 -1.862159,-4.0326 0.252515,-1.36185 0.87368,-2.60692 1.22363,-3.94412 0.217571,-0.80104 0.08777,-0.41484 0.384893,-1.16012 0,0 8.81062,-3.93226 8.81062,-3.93226 v 0 c -0.428617,0.53262 -0.247503,0.23049 -0.521094,0.91935 -0.277219,1.34767 -0.79275,2.58976 -1.252956,3.87622 -0.343691,1.31392 0.0649,2.29791 1.239115,3.02904 1.811665,0.90959 3.773422,1.1546 5.780133,1.28574 0,0 -7.863239,5.56491 -7.863239,5.56491 z"
       inkscape:connector-curvature="0" />
    <path
       style="fill:#000000;fill-opacity:1;fill-rule:nonzero;stroke:none"
       id="path5319"
       d="m 36.345668,188.47403 c -1.549186,-1.34415 -2.958469,-2.82053 -3.98448,-4.60221 -0.409956,-1.0888 -1.12434,-2.48582 -0.870752,-3.70435 0.06317,-0.30352 0.230407,-0.57565 0.34561,-0.86347 5.006743,-3.66582 6.685316,-4.96513 11.205043,-5.87105 0,0 -7.594048,5.7951 -7.594048,5.7951 v 0 c -3.37764,0.94875 -7.867951,3.88242 5.230281,-3.69779 -0.197521,0.10034 -0.461518,0.1224 -0.592564,0.30103 -0.412882,0.56282 0.36018,2.6744 0.589123,3.25209 0.940139,1.7049 2.298928,3.10155 3.842239,4.28133 0,0 -8.170452,5.10932 -8.170452,5.10932 z"
       inkscape:connector-curvature="0" />
    <path
       style="fill:#000000;fill-opacity:1;fill-rule:nonzero;stroke:none"
       id="path5321"
       d="m 53.482853,197.61063 c 0.112996,-1.77867 0.473851,-3.53842 0.468224,-5.32343 -0.03452,-0.16683 -0.06904,-0.33366 -0.103555,-0.50048 0,0 8.4819,-4.57202 8.4819,-4.57202 v 0 c 0.05896,0.22985 0.117929,0.4597 0.176893,0.68955 0.06891,1.78775 -0.30748,3.55311 -0.439493,5.33263 0,0 -8.583969,4.37375 -8.583969,4.37375 z"
       inkscape:connector-curvature="0" />
    <path
       style="fill:#000000;fill-opacity:1;fill-rule:nonzero;stroke:none"
       id="path5323"
       d="m 49.58792,187.8733 c 0.147589,-1.9792 -0.05912,-3.92674 -0.50409,-5.85222 -0.211076,-1.38911 -1.023437,-2.54484 -1.523266,-3.83179 -0.622011,-1.65408 0.1771,-3.09136 1.189588,-4.36352 2.922175,-2.94382 6.690315,-5.24635 10.702006,-6.34128 0,0 -7.585006,5.92122 -7.585006,5.92122 v 0 c -4.53218,2.07126 11.459409,-7.04502 5.729304,-3.3164 -0.884677,0.92715 -2.067426,2.02242 -1.615533,3.42042 0.486647,1.34012 1.354991,2.52459 1.543334,3.96765 0.453739,1.98367 0.710749,3.9809 0.647633,6.02216 0,0 -8.58397,4.37376 -8.58397,4.37376 z"
       inkscape:connector-curvature="0" />
    <circle
       style="opacity:1;fill:#ffff00;fill-opacity:1;stroke:#ffff00;stroke-width:4.02519703;stroke-miterlimit:4;stroke-dasharray:none;stroke-opacity:1;paint-order:markers fill stroke"
       id="path5325"
       cx="109.57745"
       cy="57.183376"
       r="37.795277" />
    <text
       xml:space="preserve"
       style="font-style:normal;font-weight:normal;font-size:24.14276886px;line-height:1.25;font-family:sans-serif;letter-spacing:0px;word-spacing:0px;fill:#000000;fill-opacity:1;stroke:none;stroke-width:0.60356921"
       x="163.88182"
       y="43.552433"
       id="text5329"
       transform="scale(0.90815015,1.1011395)"><tspan
         sodipodi:role="line"
         id="tspan5327"
         x="163.88182"
         y="43.552433"
         style="stroke-width:0.60356921">Lichtquelle</tspan></text>
    <g
       sodipodi:type="inkscape:box3d"
       id="g9295"
       inkscape:perspectiveID="#perspective5153"
       inkscape:corner0="1.0588234 : -0.11787064 : 0 : 1"
       inkscape:corner7="0.32911388 : -0.15646846 : 0.25 : 1"
       style="opacity:1;fill:#ffff00;fill-opacity:1;stroke:#ffff00;stroke-width:4.02519703;stroke-miterlimit:4;stroke-dasharray:none;stroke-opacity:1;paint-order:markers fill stroke">
      <path
         sodipodi:type="inkscape:box3dside"
         id="path9297"
         inkscape:box3dsidetype="6"
         d="m 113.38583,219.21259 v 18.74751 l 37.18312,-11.21085 v -16.71753 z"
         points="113.38583,237.9601 150.56895,226.74925 150.56895,210.03172 113.38583,219.21259 "
         style="fill:#353564;fill-rule:evenodd;stroke:none;stroke-linejoin:round" />
      <path
         sodipodi:type="inkscape:box3dside"
         id="path9305"
         inkscape:box3dsidetype="13"
         d="m 113.38583,237.9601 60.47244,56.84304 44.79167,-25.3906 -68.08099,-42.66329 z"
         points="173.85827,294.80314 218.64994,269.41254 150.56895,226.74925 113.38583,237.9601 "
         style="fill:#afafde;fill-rule:evenodd;stroke:none;stroke-linejoin:round" />
      <path
         sodipodi:type="inkscape:box3dside"
         id="path9307"
         inkscape:box3dsidetype="11"
         d="m 150.56895,210.03172 68.08099,34.93811 v 24.44271 l -68.08099,-42.66329 z"
         points="218.64994,244.96983 218.64994,269.41254 150.56895,226.74925 150.56895,210.03172 "
         style="fill:#e9e9ff;fill-rule:evenodd;stroke:none;stroke-linejoin:round" />
      <path
         sodipodi:type="inkscape:box3dside"
         id="path9299"
         inkscape:box3dsidetype="5"
         d="m 113.38583,219.21259 60.47244,46.55028 44.79167,-20.79304 -68.08099,-34.93811 z"
         points="173.85827,265.76287 218.64994,244.96983 150.56895,210.03172 113.38583,219.21259 "
         style="fill:#4d4d9f;fill-rule:evenodd;stroke:none;stroke-linejoin:round" />
      <path
         sodipodi:type="inkscape:box3dside"
         id="path9303"
         inkscape:box3dsidetype="14"
         d="m 173.85827,265.76287 v 29.04027 l 44.79167,-25.3906 v -24.44271 z"
         points="173.85827,294.80314 218.64994,269.41254 218.64994,244.96983 173.85827,265.76287 "
         style="fill:#d7d7ff;fill-rule:evenodd;stroke:none;stroke-linejoin:round" />
      <path
         sodipodi:type="inkscape:box3dside"
         id="path9301"
         inkscape:box3dsidetype="3"
         d="m 113.38583,219.21259 60.47244,46.55028 v 29.04027 L 113.38583,237.9601 Z"
         points="173.85827,265.76287 173.85827,294.80314 113.38583,237.9601 113.38583,219.21259 "
         style="fill:#8686bf;fill-rule:evenodd;stroke:none;stroke-linejoin:round" />
    </g>
    <path
       style="fill:none;stroke:#000000;stroke-width:1px;stroke-linecap:butt;stroke-linejoin:miter;stroke-opacity:1;marker-start:url(#DotL);marker-mid:url(#Arrow2Lend);marker-end:url(#Arrow1Lend)"
       d="M 45.354331,219.21259 173.85827,241.88975 249.44882,158.74015 113.38583,60.472431"
       id="path9309"
       inkscape:connector-curvature="0" />
    <path
       style="fill:none;stroke:#ffff00;stroke-width:1px;stroke-linecap:butt;stroke-linejoin:miter;stroke-opacity:1"
       d="m 83.149606,30.236211 c -1.966701,0.74052 -3.878069,1.649146 -5.900104,2.221562 -0.832813,0.23576 -1.731081,0 -2.596622,0 -1.731081,0 -3.462162,0 -5.193244,0 -2.380236,0 -4.760473,0 -7.14071,0 -0.611399,0 -2.876497,0.123093 -3.245777,0 -0.290311,-0.09677 -0.375448,-0.512302 -0.649156,-0.649156 -0.387081,-0.193541 -0.887749,0.136854 -1.298311,0 -0.459022,-0.153007 -0.839288,-0.496148 -1.298311,-0.649155 -0.410562,-0.136854 -0.911229,0.19354 -1.298311,0 -0.273708,-0.136854 -0.375447,-0.512302 -0.649155,-0.649156 -0.193541,-0.09677 -0.496148,0.153008 -0.649156,0 -0.342135,-0.342135 -0.380762,-0.895722 -0.649155,-1.298311 -0.169747,-0.25462 -0.375448,-0.512301 -0.649156,-0.649155 -0.19354,-0.09677 -0.552385,0.193541 -0.649155,0 -0.193541,-0.387082 0.136854,-0.887749 0,-1.298311 -0.193541,-0.580623 -1.024603,-0.750895 -1.298311,-1.298311 -0.08392,-0.16784 0,-3.43481 0,-3.894933 0,-1.514696 0,-3.029392 0,-4.544088 0,-0.292353 -0.09878,-1.749907 0,-1.947467 0.136854,-0.273708 0.512302,-0.375447 0.649156,-0.649155 0.259662,-0.519325 -0.259663,-1.428142 0,-1.947467 0.136854,-0.273708 0.512301,-0.375447 0.649155,-0.649155 0.09677,-0.193541 -0.153007,-0.496148 0,-0.649156 0.153007,-0.153007 0.455615,0.09677 0.649155,0 0.273708,-0.136854 0.375448,-0.512301 0.649156,-0.649155 0.387082,-0.193541 0.992296,0.306015 1.298311,0 1.731081,-1.7310815 -1.947467,0.216385 0.649155,-0.649156 0.459023,-0.153007 0.839289,-0.4961478 1.298311,-0.6491552 0.205281,-0.068427 0.865541,0 0.649156,0 -1.081926,0 -2.163852,0 -3.245778,0 -0.216385,0 -0.43277,0 -0.649155,0 -0.216385,0 -0.455615,-0.09677 -0.649156,0 -0.273707,0.136854 -0.375447,0.5123012 -0.649155,0.6491552 -0.408009,0.204005 -2.188613,-0.204004 -2.596622,0 -0.273708,0.136854 -0.375447,0.512302 -0.649155,0.649156 -0.408009,0.204004 -2.188614,-0.204005 -2.596622,0 -0.547416,0.273708 -0.750895,1.024603 -1.298311,1.298311 -0.193541,0.09677 -0.496148,-0.153008 -0.649156,0 -0.153007,0.153007 0,0.43277 0,0.649155 0,0.432771 0.193541,0.91123 0,1.298311 -0.09677,0.193541 -0.455614,-0.09677 -0.649155,0 -0.802163,0.401082 -0.649156,0.626748 -0.649156,1.298311 0,0.43277 0,0.865541 0,1.298311 0,0.216385 -0.189032,0.754462 0,0.649156 1.156916,-0.644495 2.10615,-1.606064 3.159225,-2.409096"
       id="path9813"
       inkscape:connector-curvature="0" />
    <path
       style="fill:none;stroke:#ffff00;stroke-width:1px;stroke-linecap:butt;stroke-linejoin:miter;stroke-opacity:1"
       d="m 68.031496,60.472431 c -0.389494,-0.899198 -0.620908,-1.884929 -1.168481,-2.697595 -0.241828,-0.3589 -0.91123,0.193541 -1.298311,0 -1.252435,-1.252434 -0.02475,-0.330765 -1.298311,-0.649155 -6.558815,-1.639704 0.468812,0.234406 -2.596622,-1.298311 -0.193541,-0.09677 -0.432771,0 -0.649156,0 -0.649155,0 -1.298311,0 -1.947466,0 -1.514696,0 -3.029392,0 -4.544089,0 -5.842399,0 -11.684798,0 -17.527198,0 -1.947466,0 -3.894932,0 -5.842399,0 -0.216385,0 -0.43277,0 -0.649155,0 -0.216386,0 -0.60446,0.211719 -0.649156,0 -0.09305,-0.440752 0.250046,-0.86554 0.375068,-1.298309"
       id="path9815"
       inkscape:connector-curvature="0" />
    <path
       style="fill:none;stroke:#fffa00;stroke-width:2;stroke-linecap:butt;stroke-linejoin:miter;stroke-miterlimit:4;stroke-dasharray:none;stroke-opacity:1"
       d="m 136.06299,30.236211 c 0.30294,-2.288872 0.63165,-4.57448 0.90882,-6.866615 0.15249,-1.261133 0,-2.623016 0,-3.894933 0,-0.43277 -0.10497,-0.878462 0,-1.298311 0.11735,-0.469405 0.38076,-0.895722 0.64915,-1.298311 0.16975,-0.25462 0.43277,-0.43277 0.64916,-0.649155 0.43277,-0.432771 0.80868,-0.931094 1.29831,-1.298311 1.5667,-1.175028 1.73546,-1.192308 3.24578,-1.947467 0.86554,-0.43277 1.67857,-0.992296 2.59662,-1.298311 0.20528,-0.06843 0.43792,0.04694 0.64915,0 1.74187,-0.387081 3.42454,-1.062483 5.19325,-1.298311 1.50141,-0.200188 3.03691,0.150718 4.54409,0 0.68087,-0.06809 1.31213,-0.3950237 1.94746,-0.6491552 0.59808,-0.2392296 1.78699,-1.1889125 2.59662,-0.6491555 3.36935,2.2462287 1.97928,2.3197627 3.89494,5.1932437 0.33949,0.50924 0.91598,0.820396 1.29831,1.298311 0.48738,0.609224 0.74663,1.39579 1.29831,1.947467 0.55167,0.551676 1.39579,0.746634 1.94747,1.298311 1.19634,1.196342 1.17908,1.965147 1.94746,3.245777 0.4014,0.669005 0.81093,1.338242 1.29831,1.947466 0.38233,0.477915 0.86554,0.865541 1.29831,1.298311 0.64916,0.216385 1.46362,0.165304 1.94747,0.649156 0.48385,0.483852 0.2217,1.413141 0.64916,1.947466 5.11785,3.411902 0.38859,-0.521126 1.94746,2.596622 0.0536,0.1072 1.77476,0 1.94747,0 2.25675,0 2.30256,-0.02035 5.19324,-1.947466 2.8903,-1.926866 1.66905,-2.781805 3.89494,-5.8424 9.23243,-12.694596 -1.03865,3.115947 5.19324,-5.193243 0.12983,-0.173109 -0.0968,-0.455615 0,-0.649156 0.13685,-0.273708 0.5123,-0.375447 0.64915,-0.649155 0.0968,-0.193541 -0.153,-0.496148 0,-0.649156 1.34313,-1.343126 -0.0525,2.052474 1.29832,-0.649155 0.0968,-0.193541 -0.20212,-0.726432 0,-0.649156 0.30196,0.115451 0.32698,0.557788 0.49047,0.836682"
       id="path9817"
       inkscape:connector-curvature="0" />
    <path
       style="fill:none;stroke:#fffe00;stroke-width:1px;stroke-linecap:butt;stroke-linejoin:miter;stroke-opacity:1"
       d="m 75.590551,68.031486 c -2.043638,1.557976 -4.087276,3.115951 -6.130915,4.673926 -0.216385,0 -0.455614,-0.09677 -0.649155,0 -0.273708,0.136854 -0.375447,0.512302 -0.649155,0.649156 -0.193541,0.09677 -0.455615,-0.09677 -0.649156,0 -0.273708,0.136854 -0.394536,0.479409 -0.649155,0.649155 -0.805179,0.536786 -1.731082,0.865541 -2.596622,1.298311 -0.865541,0.432771 -1.698132,0.938915 -2.596622,1.298311 -0.200909,0.08036 -0.496148,-0.153007 -0.649156,0 -0.153007,0.153008 0.153008,0.496148 0,0.649156 -0.153007,0.153007 -0.43277,0 -0.649155,0 -0.611399,0 -2.876498,-0.123094 -3.245778,0 -0.290311,0.09677 -0.358844,0.552385 -0.649155,0.649155 -0.410562,0.136854 -0.865541,0 -1.298311,0 -0.216385,0 -0.496148,0.153008 -0.649156,0 -0.153007,-0.153007 0.153008,-0.496148 0,-0.649155 -0.342135,-0.342135 -0.956176,-0.307021 -1.298311,-0.649156 -0.68427,-0.68427 -0.717688,-1.822458 -1.298311,-2.596622 -0.367217,-0.489623 -1.024602,-0.750895 -1.29831,-1.298311 -0.193541,-0.387081 0.08487,-0.873944 0,-1.298311 -0.134197,-0.670981 -0.432771,-1.29831 -0.649156,-1.947466 -0.216385,-0.649155 -0.269591,-1.378119 -0.649155,-1.947466 -0.120029,-0.180044 -0.496148,0.153007 -0.649156,0 -0.342135,-0.342135 -0.43277,-0.865541 -0.649155,-1.298311 -0.216386,-0.432771 -0.496148,-0.839289 -0.649156,-1.298311 -0.205281,-0.615843 0.157443,-1.317693 0,-1.947467 -0.117351,-0.469405 -0.496148,-0.839288 -0.649155,-1.298311 -0.152154,-0.45646 0.17794,-3.067837 0,-3.245777 -0.153008,-0.153008 -0.432771,0 -0.649156,0 -0.216385,0 -0.446548,-0.07598 -0.649155,0 -1.543015,0.57863 -3.070126,1.210485 -4.544089,1.947466 -0.697821,0.348911 -1.323316,0.830199 -1.947466,1.298311 -0.489624,0.367218 -0.750895,1.024603 -1.298311,1.298311 -0.193541,0.09677 -0.496148,-0.153007 -0.649156,0 -0.306014,0.306015 0.193541,0.91123 0,1.298311 -0.389493,0.778987 -1.557973,1.16848 -1.947466,1.947467 -0.09677,0.19354 0.09677,0.455614 0,0.649155 -0.136854,0.273708 -0.512302,0.375448 -0.649155,0.649156 -0.204005,0.408008 0.204004,2.188613 0,2.596622 -0.136854,0.273708 -0.375448,0.512301 -0.649156,0.649155 -0.193541,0.09677 -0.552385,-0.193541 -0.649155,0 -0.193541,0.387082 0.136854,0.887749 0,1.298311 -0.675408,2.026222 -0.432771,-0.216385 -1.298311,0.649155 -0.153008,0.153008 0.153007,0.496149 0,0.649156 -0.153008,0.153007 -0.496148,-0.153007 -0.649156,0 -0.153007,0.153007 0.08258,0.449149 0,0.649155 -0.233551,0.565632 -0.615495,1.057879 -0.923243,1.586819"
       id="path9819"
       inkscape:connector-curvature="0" />
    <path
       style="fill:none;stroke:#ffff00;stroke-width:1px;stroke-linecap:butt;stroke-linejoin:miter;stroke-opacity:1"
       d="m 90.708661,90.708652 c -3.693632,4.773832 -1.752338,1.592447 -6.318448,3.418891 -0.284128,0.113651 -0.375448,0.512302 -0.649156,0.649156 -0.387081,0.193541 -1.10477,-0.387082 -1.298311,0 -0.193541,0.387081 0,0.86554 0,1.298311 0,0.216385 -0.05248,0.439231 0,0.649155 0.16596,0.66384 0.514959,1.276485 0.649156,1.947467 0.09916,0.495798 -0.164655,2.102658 0,2.596618 0.256126,0.76838 1.577105,2.87542 1.947466,3.24578 0.551676,0.55168 1.331624,0.81932 1.947466,1.29831 1.334023,1.03758 2.611773,2.14593 3.894933,3.24578 0.232344,0.19915 0.375448,0.5123 0.649156,0.64915 0.61203,0.30602 1.335437,0.34315 1.947466,0.64916 0.273708,0.13685 0.375448,0.5123 0.649156,0.64916 0.145495,0.0727 2.442363,0 2.596622,0 1.514696,0 3.029392,0 4.544093,0 3.46216,0 6.92432,0 10.38648,0 0.64916,0 1.34474,0.24109 1.94747,0 0.56825,-0.22731 0.78907,-0.95882 1.29831,-1.29832 0.18004,-0.12002 0.43277,0 0.64916,0 0.43277,0 0.91123,0.19355 1.29831,0 0.38708,-0.19354 -0.30602,-0.99229 0,-1.29831 0.30601,-0.30601 0.99229,0.30602 1.29831,0 0.153,-0.153 0,-0.43277 0,-0.64915 0,-0.64916 0,-1.29831 0,-1.94747 0,-0.21638 0,-0.43277 0,-0.64915 0,-0.21639 -0.21055,-0.69908 0,-0.64916 1.00259,0.23773 1.86572,0.87516 2.79858,1.31273"
       id="path9821"
       inkscape:connector-curvature="0" />
    <path
       style="fill:none;stroke:#fff900;stroke-width:1px;stroke-linecap:butt;stroke-linejoin:miter;stroke-opacity:1"
       d="m 105.82677,22.677156 c -1.95227,-0.634728 -3.88661,-1.327537 -5.856826,-1.904182 -0.415346,-0.121564 -0.865541,0 -1.298311,0 -0.865541,0 -1.731081,0 -2.596622,0 -0.216385,0 -0.43277,0 -0.649155,0 -0.216385,0 -0.455615,0.09677 -0.649156,0 -0.590456,-0.295228 -1.849778,-2.466372 -1.947466,-2.596622 -0.367218,-0.489624 -1.024603,-0.750895 -1.298311,-1.298311 -0.08535,-0.17069 0,-2.257165 0,-2.596622 0,-0.565463 -0.119802,-3.655329 0,-3.894933 0.136854,-0.273708 0.512301,-0.375447 0.649155,-0.6491552 0.09677,-0.1935408 -0.153007,-0.4961481 0,-0.6491555 0.153008,-0.1530074 0.432771,0 0.649156,0 0.216385,-0.2163852 0.479409,-0.3945358 0.649155,-0.6491555 0.268393,-0.4025891 0.307021,-0.956176 0.649156,-1.2983109 0.746474,-0.7464742 2.485244,-0.791289 3.245777,-1.298311 0.180044,-0.1200289 0.153008,-0.4961481 0,-0.6491555 -0.02088,-0.020877 -1.790029,0 -1.947466,0 -3.029393,0 -6.058785,0 -9.088177,0 -0.14836,0 -1.942151,-0.00665 -1.947466,0 -0.555744,0.6957386 -0.827071,1.5772021 -1.240607,2.3658031"
       id="path9823"
       inkscape:connector-curvature="0" />
    <path
       style="fill:none;stroke:#ffff00;stroke-width:1px;stroke-linecap:butt;stroke-linejoin:miter;stroke-opacity:1"
       d="m 151.1811,60.472431 c 0.024,2.130194 -0.14501,4.271347 0.0721,6.390582 0.0312,0.304421 0.46916,0.40167 0.64915,0.649156 1.55355,2.136128 2.83795,4.475209 4.54409,6.491554 0.69886,0.825928 1.89251,1.126008 2.59662,1.947467 0.62978,0.734735 0.78543,1.776011 1.29831,2.596622 0.57342,0.917471 1.46362,1.628918 1.94747,2.596622 0.19354,0.387081 0,0.86554 0,1.298311 0,0.216385 -0.15301,0.496148 0,0.649155 0.15301,0.153008 0.43277,0 0.64916,0 0.99908,0 1.25297,0.276832 1.94746,-0.649155 4.78537,-7.178055 -1.39564,1.395642 2.59662,-2.596622 0.15301,-0.153008 -0.19354,-0.552385 0,-0.649156 0.38709,-0.193541 0.93823,0.240058 1.29832,0 0.40258,-0.268392 0.38076,-0.895722 0.64915,-1.298311 0.16975,-0.254619 0.43277,-0.43277 0.64916,-0.649155 0.43277,-0.43277 0.86554,-0.865541 1.29831,-1.298311 0.21638,0 0.45561,0.09677 0.64915,0 0.27371,-0.136854 0.43277,-0.43277 0.64916,-0.649156 0.43277,-0.43277 0.86554,-0.86554 1.29831,-1.298311 0.86554,-0.86554 1.547,-1.966848 2.59662,-2.596622 0.84426,-0.506555 0.61939,1.268545 0.64916,1.298311 0.153,0.153008 0.43277,0 0.64915,0 0.21639,0 0.43277,0 0.64916,0 2.16385,0 4.3277,0 6.49155,0 1.08193,0 2.16385,0 3.24578,0 0.21638,0 0.49615,0.153008 0.64916,0 0.153,-0.153007 -0.15301,-0.496148 0,-0.649155 0.153,-0.153007 0.64474,-0.21634 0.64915,0 0.0244,1.193444 -0.38468,2.35619 -0.57702,3.534285"
       id="path9825"
       inkscape:connector-curvature="0" />
  </g>
</svg>
